<?xml version="1.0" encoding="UTF-8" standalone="no"?><!DOCTYPE svg PUBLIC "-//W3C//DTD SVG 1.1//EN" "http://www.w3.org/Graphics/SVG/1.1/DTD/svg11.dtd"><svg width="100%" height="100%" viewBox="0 0 79 53" version="1.1" xmlns="http://www.w3.org/2000/svg" xmlns:xlink="http://www.w3.org/1999/xlink" xml:space="preserve" xmlns:serif="http://www.serif.com/" style="fill-rule:evenodd;clip-rule:evenodd;stroke-linejoin:round;stroke-miterlimit:2;"><rect id="Artboard1" x="-3.173" y="-14.583" width="90.654" height="67.622" style="fill:none;"/><g><path d="M19.506,6.785c0.75,-0 1.366,-0.617 1.366,-1.366c0,-0.75 -0.616,-1.367 -1.366,-1.367c-0.749,0 -1.366,0.617 -1.366,1.367c0,0.749 0.617,1.366 1.366,1.366m5.464,-1.366c0,0.749 -0.616,1.366 -1.366,1.366c-0.749,-0 -1.366,-0.617 -1.366,-1.366c0,-0.75 0.617,-1.367 1.366,-1.367c0.75,0 1.366,0.617 1.366,1.367m2.733,1.366c0.749,-0 1.366,-0.617 1.366,-1.366c-0,-0.75 -0.617,-1.367 -1.366,-1.367c-0.75,0 -1.366,0.617 -1.366,1.367c-0,0.749 0.616,1.366 1.366,1.366" style="fill:#a4a4a4;fill-rule:nonzero;"/><path d="M19.298,35.22c0.007,0 0.014,0 0.021,0l28.072,0c-0.026,0.486 -0.064,1.407 -0.067,2.28l-27.366,-0c-0.13,-0.734 -0.362,-1.825 -0.66,-2.28Z" style="fill:#a4a4a4;"/><path d="M19.958,37.5l-0.214,0c-3.429,0 -6.25,-2.821 -6.25,-6.25l-0,-0.194c0.246,0.001 0.764,0.009 2.091,0.066l0,0.222c0.047,2.308 2.56,3.857 3.713,3.876c0.298,0.455 0.53,1.546 0.66,2.28Z" style="fill:#a4a4a4;"/><path d="M13.494,31.056l-0,-24.806c-0,-3.429 2.821,-6.25 6.25,-6.25l37.5,0c3.428,0 6.25,2.821 6.25,6.25l-0,14.914c-1.107,-0.056 -1.577,-0.061 -2.186,-0.044l0,-6.529l-45.723,0.142l0,16.389c-1.327,-0.057 -1.845,-0.065 -2.091,-0.066Zm43.75,-28.729l-37.5,0c-3.69,-0.377 -4.159,2.874 -4.159,4.017l0,6.25l45.723,-0.141l0,-6.25c0.047,-4.209 -4.064,-3.876 -4.064,-3.876Z" style="fill:#a4a4a4;"/></g><rect id="Artboard2" x="-19.839" y="-27.083" width="127.253" height="88.674" style="fill:none;"/><path d="M62.027,19.713c-8.946,0 -16.194,7.248 -16.194,16.194c0,8.945 7.248,16.193 16.194,16.193c8.945,0 16.193,-7.248 16.193,-16.193c0,-8.946 -7.248,-16.194 -16.193,-16.194m-0,29.253c-7.202,-0 -13.059,-5.857 -13.059,-13.059c-0,-7.202 5.857,-13.06 13.059,-13.06c1.595,0 3.124,0.288 4.538,0.813c4.971,1.848 8.521,6.64 8.521,12.247c0,7.202 -5.857,13.059 -13.059,13.059m0.522,-9.925c-0.862,-0 -1.567,0.705 -1.567,1.567c0,0.862 0.705,1.567 1.567,1.567c1.554,0 3.023,0.686 4.022,1.881c0.529,0.64 1.515,0.777 2.207,0.202c0.666,-0.555 0.758,-1.541 0.203,-2.207c-1.6,-1.913 -3.944,-3.01 -6.432,-3.01m-5.746,-4.179c1.156,-0 2.09,-0.934 2.09,-2.09c-0,-1.155 -0.934,-2.089 -2.09,-2.089c-1.156,0 -2.089,0.934 -2.089,2.089c-0,1.156 0.933,2.09 2.089,2.09m10.448,-4.179c-1.156,0 -2.09,0.934 -2.09,2.089c0,1.156 0.934,2.09 2.09,2.09c1.155,-0 2.089,-0.934 2.089,-2.09c0,-1.155 -0.934,-2.089 -2.089,-2.089m-10.814,6.451c-0.744,0.999 -2.376,3.304 -2.376,4.447c-0,1.482 1.227,2.684 2.742,2.684c1.515,-0 2.743,-1.202 2.743,-2.684c-0,-1.143 -1.633,-3.448 -2.377,-4.447c-0.183,-0.241 -0.549,-0.241 -0.732,0" style="fill:#a4a4a4;fill-rule:nonzero;"/></svg>